<svg width="200" height="200" viewBox="0 0 200 200" fill="none" xmlns="http://www.w3.org/2000/svg">
<rect x="28" y="11" width="144" height="178" fill="#D9D9D9"/>
<path d="M175.748 0H45.2362C30.5906 0 18.7008 11.8898 18.7008 26.5354V173.465C18.7008 188.11 30.5906 200 45.2362 200H175.748C178.819 200 181.299 197.52 181.299 194.449V5.55118C181.299 2.48031 178.819 0 175.748 0ZM48.2677 188.898H45.2362C36.7323 188.898 29.8032 181.969 29.8032 173.465V26.5354C29.8032 18.0315 36.7323 11.1024 45.2362 11.1024H48.2677V188.898ZM170.197 188.898H59.3701V11.1024H170.197V188.898Z" fill="#467DB1"/>
<rect x="107" y="49" width="11" height="67" fill="#467DB0"/>
<rect x="92.0837" y="76.7317" width="12.4483" height="41.2629" transform="rotate(-90 92.0837 76.7317)" fill="#467DB0"/>
</svg>
